<?xml version="1.0"?>
<svg version="1.1" xmlns="http://www.w3.org/2000/svg" height="150px">
    <path fill="#ff0000"
        d="M18.27,104.2l-0.805-3.36s-1.645-0.56-3.92-0.56c-3.675,0-5.775,2.73-5.775,8.575c0,5.67,2.275,8.05,5.95,8.05c3.5,0,6.65-2.45,6.65-2.45l1.925,3.15s-3.675,3.815-9.17,3.815c-7.105,0-11.2-4.27-11.2-12.39c0-8.225,4.62-13.125,11.795-13.125c4.235,0,8.155,1.645,8.155,1.645l-0.175,6.65l-3.43,0z M27.17785,121l0-2.975l2.625-1.05l0-16.45l-2.625-1.05l0-2.975l10.675-0.175l0,3.15l-2.625,1.05l0,16.45l2.625,1.05l0,2.975l-10.675,0z M42.9107,121l0-2.975l2.625-1.05l0-16.45l-2.625-1.05l0-2.975l8.4-0.175l9.45,16.17l0-11.97l-2.555-1.05l0-2.975l9.975-0.175l0,3.15l-2.625,1.05l0,20.475l-5.845,0l-9.38-15.855l0,11.83l2.73,1.05l0,2.975l-10.15,0z M88.35855,106.3l0,3.85l-7.07,0l0,6.65l6.265,0l0.805-2.87l3.15,0l0,7.07l-18.27,0l0-2.975l2.625-1.05l0-16.45l-2.625-1.05l0-2.975l8.05-0.175l9.8,0l0,6.755l-3.15,0l-0.875-2.555l-5.775,0l0,5.775l7.07,0z M97.0914,121l0-2.975l2.625-1.05l0-16.45l-2.625-1.05l0-2.975l9.03-0.175l5.25,11.655l5.495-11.48l8.4-0.175l0,3.15l-2.52,1.05l0,16.45l2.625,1.05l0,2.975l-10.43,0l0-2.975l2.73-1.05l0-13.16l-0.945,2.31l-3.955,8.225l-3.78,0.175l-4.025-8.295l-0.595-1.82l0,12.565l2.695,1.05l0,2.975l-9.975,0z M142.50425,95.905c7,0,11.025,4.62,11.025,12.425c0,7.875-4.725,13.125-11.725,13.125s-10.85-4.375-10.85-12.6c0-8.05,4.445-12.95,11.55-12.95z M142.32925,100.28c-3.5,0-5.425,2.17-5.425,8.4c0,5.775,1.575,8.4,5.075,8.4s5.6-2.275,5.6-8.575c0-5.775-1.75-8.225-5.25-8.225z M159.1121,121l0-2.975l2.625-1.05l0-16.45l-2.625-1.05l0-2.975l8.05-0.175l2.66,0c5.74,0,9.1,2.38,9.1,7.14c0,3.29-1.575,5.425-3.955,6.615c0.385,0.455,0.91,1.12,1.47,2.275l2.345,4.795l2.38,0.875l0,2.975l-6.475,0l-2.94-6.475c-1.19-2.66-1.505-3.22-3.36-3.22l-1.225,0l0,5.67l2.52,1.05l0,2.975l-10.57,0z M167.1621,107.63l1.995,0c2.765,0,4.375-1.33,4.375-3.675c0-1.995-1.33-3.43-3.5-3.43l-2.87,0l0,7.105z M185.16995,121l0-2.975l2.625-1.05l0-16.45l-2.625-1.05l0-2.975l8.05-0.175l3.325,0c5.355,0,8.505,2.8,8.505,7.35c0,5.88-3.605,8.75-9.975,8.75l-1.855,0l0,4.55l2.625,1.05l0,2.975l-10.675,0z M193.21995,108.33l1.855,0c2.905,0,4.55-1.365,4.55-3.955c0-2.275-1.225-3.85-3.605-3.85l-2.8,0l0,7.805z M209.4078,121l0-2.975l2.625-1.05l0-16.45l-2.625-1.05l0-2.975l10.85-0.175l0,3.15l-2.8,1.05l0,5.6l9.17,0l0-5.6l-2.8-1.05l0-2.975l10.85-0.175l0,3.15l-2.625,1.05l0,16.45l2.625,1.05l0,2.975l-10.85,0l0-2.975l2.8-1.05l0-6.65l-9.17,0l0,6.65l2.8,1.05l0,2.975l-10.85,0z" />
    <path fill="#0095ff" d="" />
</svg>